<?xml version="1.0" encoding="UTF-8" standalone="no"?>
<svg width="171px" height="171px" viewBox="0 0 40 40" version="1.1" xmlns="http://www.w3.org/2000/svg" xmlns:xlink="http://www.w3.org/1999/xlink" xmlns:sketch="http://www.bohemiancoding.com/sketch/ns">
    <!-- Generator: Sketch 3.3.2 (12043) - http://www.bohemiancoding.com/sketch -->
    <title>logo_green</title>
    <desc>Created with Sketch.</desc>
    <defs></defs>
    <g id="Page-1" stroke="none" stroke-width="1" fill="none" fill-rule="evenodd" sketch:type="MSPage">
        <g id="Fresho_LP_Desktop" sketch:type="MSArtboardGroup" transform="translate(-700.000000, -2233.000000)" fill="#009A44">
            <g id="LP" sketch:type="MSLayerGroup">
                <g id="Footer" transform="translate(0.000000, 2205.000000)" sketch:type="MSShapeGroup">
                    <g id="logo" transform="translate(700.000000, 27.500000)">
                        <path d="M34.187745,12.9820182 C33.8802769,13.1013868 33.9464578,13.4026618 33.9474293,13.7936758 L33.9486436,14.5215446 L33.9549581,18.1278591 C33.9558081,18.5188731 33.9785161,18.7312593 34.0225962,18.7761894 C34.0776053,18.8189338 34.3192568,18.7891828 34.7594511,18.6958009 C34.8361967,18.6795288 35.0783339,18.6392131 35.1661299,18.6205124 C35.2652192,18.5995046 35.4081457,18.5366023 35.4631548,18.4704214 C35.5071135,18.4070334 35.5284857,18.185054 35.5276357,17.7940401 L35.5197426,13.4271913 C35.5191354,13.0253698 35.4967917,12.8128622 35.4527116,12.7786181 C35.4083886,12.7338094 35.2106958,12.7539672 34.8695908,12.8262198 C34.4517401,12.9151087 34.2207747,12.9640461 34.187745,12.9820182 L34.187745,12.9820182 Z M34.5957596,19.3828682 C34.3757231,19.4621639 34.1890808,19.5884542 34.0354681,19.7733965 C33.8818555,19.9690249 33.7938166,20.172425 33.7725659,20.383354 C33.7402647,20.7160801 33.8394754,20.9668391 34.0485829,21.128952 C34.269105,21.2883934 34.5221712,21.3217875 34.7969739,21.2524493 C35.2699551,21.1196017 35.6870771,20.6834147 35.7191354,20.1658676 C35.7729302,19.5026011 35.2552617,19.1668391 34.5957596,19.3828682 L34.5957596,19.3828682 Z M28.2400826,16.3860255 C28.5283643,16.1621032 28.8478543,16.0026618 29.1881093,15.9100085 C29.8788197,15.7125586 30.4565974,15.824034 30.9211998,16.234963 C31.3446363,16.6035118 31.5623655,17.1380595 31.5946667,17.8236697 C31.6269678,18.5401239 31.4423898,19.1907614 31.0514973,19.7929472 C30.6607262,20.4058191 30.1356503,20.79234 29.4655835,20.9549387 C27.9811876,21.3209375 27.1748731,20.5242162 27.0586618,19.0410346 C26.9741445,17.9690249 27.4675264,16.9982902 28.2400826,16.3860255 L28.2400826,16.3860255 Z M29.0720194,14.4471063 C28.731643,14.5500814 28.432918,14.6540279 28.195881,14.7656248 C27.4536831,15.1267662 26.8565974,15.6405489 26.3934523,16.3095228 C25.7046849,17.3011439 25.4071743,18.3625889 25.4816126,19.4979866 C25.5663728,20.6617996 25.9599369,21.5055155 26.6516187,22.0208767 C27.4262392,22.5897899 28.3956381,22.7203303 29.5713515,22.4199053 C30.6638834,22.1372095 31.5498579,21.5213018 32.2391111,20.5699964 C32.9075993,19.6336272 33.2154317,18.5699964 33.161394,17.3893042 C33.0976418,16.2416418 32.7145209,15.3957401 32.0018312,14.8545137 C31.2270893,14.264714 30.2572046,14.124459 29.0720194,14.4471063 L29.0720194,14.4471063 Z M20.6127602,17.1486242 C20.5456078,17.1723036 20.4875628,17.2036333 20.4493115,17.2497778 C20.4014669,17.3074584 20.3822805,17.4446776 20.3825234,17.6631354 L20.3932095,23.4421275 C20.3934523,23.5749751 20.384102,23.852935 20.3843449,24.0145622 C20.3944238,24.1358737 20.4235677,24.2343558 20.4620619,24.2639854 C20.5101494,24.3015082 20.654776,24.2993224 20.7411148,24.280986 C20.8470043,24.2585209 21.0780911,24.1998689 21.1165853,24.1918543 C21.5109994,24.1080656 21.7228998,24.0443133 21.7705015,23.9862684 C21.8189532,23.9098871 21.84749,23.7706035 21.8374111,23.6583995 C21.8371682,23.5444954 21.8272107,23.3468027 21.8272107,23.2802574 L21.8244177,21.7689035 C21.8238106,21.35081 21.8426327,21.1188731 21.8902344,21.0609496 C21.9386861,21.003269 22.0731123,20.9460741 22.1599369,20.9276163 C22.2463971,20.9094013 22.4677693,20.8718786 22.5448792,20.8556066 C22.7757231,20.8066691 23.0932702,20.7010225 23.1989168,20.783354 C23.3049277,20.8654426 23.2672835,21.2157766 23.2677693,21.4627711 L23.2705622,22.9740036 C23.2705622,23.0594924 23.2613333,23.2896078 23.2616976,23.3942829 C23.2619405,23.4797717 23.2908415,23.6162623 23.3391718,23.6534208 C23.3875021,23.6909435 23.531643,23.6887577 23.6182247,23.6704214 C23.7051706,23.6518421 23.9456078,23.5913685 23.9935738,23.5811682 C24.3881093,23.4975009 24.5997668,23.4336272 24.6478543,23.3757037 C24.7535009,23.2489277 24.7236284,22.7702392 24.7136709,22.5345379 L24.7038349,17.1834754 C24.703592,17.1359951 24.7126995,16.8678713 24.7124566,16.7254305 C24.7122137,16.5731536 24.6929059,16.4063048 24.6445756,16.3499599 C24.5481579,16.2658069 24.2114244,16.3656248 23.9612726,16.4284056 C23.6920559,16.4856005 23.4221105,16.504544 23.3168282,16.6318057 C23.2783339,16.6873005 23.2593904,16.9006582 23.260119,17.2808646 L23.2626691,18.6685999 C23.2633977,19.0486849 23.244697,19.2616782 23.1962453,19.3100085 C23.1481579,19.367932 22.9366217,19.4316843 22.5423291,19.515473 C22.474691,19.5298021 22.2729909,19.5821396 22.1672228,19.6047262 C22.0805197,19.6230625 21.936136,19.6251269 21.8876843,19.587847 C21.8398397,19.5505671 21.8103315,19.4139551 21.8103315,19.3285877 C21.8100886,19.2428561 21.8193175,19.0126193 21.8193175,18.9748537 L21.8167675,17.5775252 C21.8160389,17.1974402 21.7964882,16.9924614 21.7576296,16.9529957 C21.7097851,16.9158373 21.517071,16.9375738 21.199524,17.004969 C20.8820984,17.0628925 20.6898701,17.1132872 20.6127602,17.1486242 L20.6127602,17.1486242 Z M17.4173746,18.1731536 C17.1112423,18.2554851 16.840204,18.3907614 16.5955167,18.5809253 C16.3861664,18.7463169 16.2024384,18.9409739 16.0368039,19.1749751 C15.6703194,19.7104942 15.5401433,20.2740644 15.6462757,20.8564566 C15.7169496,21.2563352 15.9273928,21.5313807 16.2514973,21.7046655 C16.5753588,21.869207 16.8117887,21.9312593 17.2580546,22.0094621 C17.5817948,22.0702999 17.6955774,22.0982295 17.9322502,22.2207553 C18.1685586,22.3434026 18.24749,22.5684177 18.2219891,22.9111014 C18.1793661,23.438606 17.7689229,23.9058798 17.2001311,23.9230018 C16.8765124,23.9311378 16.6052313,23.7986545 16.3859235,23.525309 C16.2895058,23.3901542 16.2191961,23.327252 16.1581154,23.3316236 C16.0620619,23.3520243 15.992238,23.4531779 15.9399004,23.5164444 C15.8351038,23.6422489 15.7564153,23.7282234 15.6517401,23.8367845 C15.5467007,23.9540886 15.4334038,24.0730929 15.4336466,24.2027832 C15.4251463,24.308187 15.5303072,24.4502635 15.7407505,24.6302271 C16.2137316,25.0395774 16.7651585,25.173275 17.3947881,25.0395774 C17.8846485,24.9357523 18.3043206,24.7344165 18.6535616,24.4269484 C19.3086922,23.8729715 19.6830698,22.9294378 19.5416005,21.9828682 C19.4708051,21.5486242 19.2952131,21.2488063 18.9537438,21.079286 C18.7872593,20.9849326 18.6385039,20.9214232 18.4983704,20.8734572 C18.3583582,20.8254912 18.1657656,20.7798324 17.9293358,20.7262805 C17.8856199,20.7096442 17.6756624,20.676493 17.6054742,20.6566995 C17.5441506,20.6352058 17.3694086,20.6030261 17.2989775,20.5576102 C17.1764517,20.4798931 17.0450613,20.3953758 16.9923594,20.2511135 C16.9395361,20.1067298 16.9481579,19.940731 17.0266035,19.759796 C17.1396576,19.5026011 17.3407505,19.3216661 17.6291536,19.2172338 C17.882827,19.1374523 18.1188925,19.1304092 18.3290929,19.206912 C18.4867128,19.2597353 18.6007383,19.4345987 18.7405076,19.3874827 C18.8105744,19.3639247 18.88902,19.2781931 18.9242356,19.2103121 C18.9587225,19.1423097 19.0372896,19.0047262 19.0461542,18.976918 C19.1247213,18.8480777 19.2992204,18.6639854 19.2726266,18.505394 C19.263762,18.412255 19.1586011,18.3307735 18.9482793,18.2546351 C18.4494329,18.0579138 17.933343,18.0292556 17.4173746,18.1731536 L17.4173746,18.1731536 Z M11.7429362,20.0344772 C11.5696515,20.0713928 11.5537438,20.2701785 11.5377146,20.4611925 C11.5378361,20.5588245 11.5547152,20.7835968 11.5548367,20.8485634 L11.563337,25.4434633 C11.5637013,25.6877863 11.5312787,26.0778288 11.6223534,26.1482599 C11.6632763,26.1801967 11.8286679,26.1695106 11.9525294,26.1432811 C12.0761481,26.1170516 12.3317644,26.0547565 12.3728087,26.0460134 L13.9729302,25.7064869 C13.9894451,25.7030868 14.0720194,25.6853576 14.212153,25.6637426 C14.3525294,25.6421275 14.4678907,25.6093406 14.5422077,25.5855398 C14.6245392,25.5599174 14.6820984,25.5313807 14.723507,25.4981081 C14.8139745,25.4220911 14.7889593,25.1908828 14.788595,25.0036333 C14.7883522,24.9627104 14.7963667,24.7980474 14.7961239,24.7409739 C14.7961239,24.6758859 14.7711087,24.583354 14.7301858,24.5514171 C14.6885343,24.5193588 14.5484007,24.5328379 14.292663,24.5871184 L13.2863485,24.8007189 C13.0307322,24.854878 12.8823412,24.8701785 12.841054,24.8382417 C12.7830091,24.7934329 12.7664942,24.6421275 12.7660085,24.51183 C12.7740231,24.3795896 12.7817948,24.125309 12.7816733,24.068357 C12.7816733,23.9948901 12.7728087,23.7522672 12.7644299,23.6319271 C12.764187,23.5097656 12.780459,23.3676891 12.8380182,23.2984724 C12.8793054,23.2490492 13.0278179,23.2010832 13.2834341,23.1468027 L14.2319466,22.9455883 C14.4711694,22.894708 14.611303,22.8488063 14.6523473,22.7992617 C14.7017705,22.739881 14.7265428,22.5798324 14.7259356,22.3111014 C14.7255713,22.0420061 14.7001919,21.8926436 14.6508901,21.8624068 C14.6092386,21.8304699 14.469105,21.843949 14.2298822,21.8948294 L13.2649763,22.0995653 C13.0176175,22.1521457 12.877241,22.1653819 12.8360753,22.1335665 C12.7944238,22.1015082 12.7696515,21.9681749 12.7694086,21.8705428 C12.7692872,21.7727893 12.7773018,21.5753394 12.7770589,21.5185088 C12.776816,21.4532993 12.7684372,21.2594924 12.7681943,21.1698749 C12.7680729,21.0802574 12.7924809,20.9527529 12.8338895,20.9032083 C12.8749338,20.8537851 13.0153103,20.8078834 13.2709265,20.7536029 L14.2604833,20.543524 C14.5245999,20.4875434 14.672748,20.4395774 14.7142781,20.3981688 C14.755201,20.357003 14.7797304,20.1969545 14.7791233,19.91183 C14.778759,19.6428561 14.7617583,19.4915507 14.7289715,19.4579138 C14.6955774,19.4241554 14.5802162,19.4242769 14.3905379,19.4645926 L12.5182854,19.8617996 C12.0480971,19.9616175 11.8007383,20.0140765 11.7594511,20.0310771 L11.7429362,20.0344772 Z M8.67311233,22.5160801 C8.67262659,22.3145015 8.66497632,22.2934936 8.71779964,22.1927043 C8.747915,22.1414596 8.79320947,22.1095228 8.86133333,22.087422 C9.33735033,21.9342951 9.6029241,22.2216053 9.57341591,22.7358737 C9.55131512,23.0169909 9.40049545,23.2954366 9.21178871,23.4251269 C9.08343412,23.5197231 8.8793054,23.6078834 8.73528597,23.556153 C8.63692532,23.5022368 8.67408379,23.0685999 8.67371949,22.8893649 L8.67311233,22.5160801 Z M10.7901736,26.3100085 C10.7900522,26.1831111 10.7975811,26.1890613 10.7595726,26.0851148 C10.7365003,26.0377559 10.7289715,26.0019332 10.7214426,25.9958616 L10.0227177,24.3437668 C9.95422951,24.1789824 9.92374985,24.0734572 9.93115726,24.0345987 C9.93115726,23.9822611 9.96916576,23.9368452 10.0671621,23.8488063 L10.1350431,23.7747322 C10.3690443,23.5232447 10.5349217,23.2190553 10.6173746,22.8802574 C10.7373503,22.3466812 10.668255,21.8236697 10.4561117,21.5175373 C10.2363182,21.2205124 9.88804857,21.0777073 9.39660959,21.0924007 C9.19235944,21.0983509 8.77645173,21.1718179 8.16394414,21.3017511 C7.9674657,21.343524 7.64979721,21.3659891 7.5745088,21.5089156 C7.53662174,21.5843254 7.52933576,21.7277377 7.53735033,21.9725464 C7.54524347,22.0904578 7.54548634,22.1577316 7.54548634,22.1800753 L7.55313661,26.3622247 C7.55313661,26.4218482 7.54585064,26.6401846 7.54597207,26.737088 C7.54621494,26.8342344 7.56953005,26.9712107 7.60729569,27.000476 C7.69059866,27.0651998 7.95520097,26.9716964 8.11391378,26.9378166 C8.14415058,26.9315021 8.40134548,26.8917936 8.4995847,26.8636211 C8.55240801,26.844799 8.59770249,26.8202696 8.62769642,26.7913685 C8.71087796,26.6915507 8.68015543,26.4218482 8.67979114,26.234963 L8.67760534,25.0848719 L8.67711961,24.7489885 C8.68440559,24.6653212 8.71464238,24.6139551 8.74475774,24.5551815 C8.79770249,24.5738822 8.85841894,24.6356916 8.91136369,24.7515386 C8.99490953,24.9356308 9.17742319,25.3748537 9.45841894,26.0848719 L9.5194997,26.2511135 C9.55738676,26.3475313 9.58786642,26.4234268 9.61810322,26.469207 C9.64834001,26.5151087 9.68634851,26.544374 9.72411415,26.5587031 C9.7848306,26.5757037 9.89059866,26.5684177 9.95860109,26.5538458 C10.0417826,26.536238 10.2080243,26.4934936 10.2687407,26.4806217 C10.4652192,26.4463777 10.7073564,26.4099478 10.7901736,26.3100085 L10.7901736,26.3100085 Z M4.35726533,22.6291342 C4.2128816,22.6597353 4.19952398,22.8120121 4.18604493,22.9709678 C4.18616636,23.0591281 4.20037401,23.2532993 4.20049545,23.3142587 L4.20753855,27.1434026 C4.20778142,27.3402453 4.18082332,27.6651998 4.25671888,27.7238519 C4.29084153,27.7504457 4.38725926,27.7503242 4.44919004,27.7372095 C4.51112083,27.7240947 4.68282696,27.6808646 4.71719247,27.6735786 C4.74463631,27.6678713 4.98543777,27.6371488 5.06776928,27.5993831 C5.11573528,27.5822611 5.15010079,27.5614961 5.17754463,27.5283449 C5.2530759,27.4376345 5.22490346,27.1719393 5.22453916,27.0021761 L5.22259624,25.8684784 C5.22223194,25.705394 5.18045902,25.4292556 5.27663388,25.3406096 C5.33844323,25.2733358 5.49667031,25.2260984 5.75095082,25.1927043 C5.8814912,25.171575 5.95010079,25.1571245 5.9571439,25.1555458 C6.12897146,25.119116 6.56200121,25.0545137 6.63728962,24.9635604 C6.67177656,24.9293163 6.68537705,24.7973188 6.68476988,24.5664748 C6.68452702,24.3356308 6.6704408,24.2095835 6.63595386,24.1828682 C6.58774499,24.1457098 6.45720461,24.159796 6.3471864,24.1831111 C6.24421129,24.204969 6.03097511,24.263864 5.95544384,24.2798931 C5.78361627,24.316323 5.34402914,24.436663 5.26813358,24.3782538 C5.23376806,24.3514171 5.21276017,24.2608282 5.21276017,24.1862684 C5.21263874,24.1115871 5.21907468,23.9402453 5.21895325,23.879286 C5.21858895,23.7232447 5.19065938,23.4437061 5.26631208,23.3528743 C5.30043473,23.31183 5.41057438,23.2749144 5.6029241,23.2341129 L5.99466667,23.1509314 L6.21446023,23.1111014 C6.5102708,23.0685999 6.67517668,23.0132265 6.73018579,22.9474098 C6.76418701,22.9060012 6.77803036,22.7742465 6.77730176,22.5502028 C6.77705889,22.3192374 6.76285124,22.19319 6.7287286,22.1665962 C6.65975471,22.1064869 6.35726533,22.1910043 6.17863752,22.235813 L5.58070188,22.3627104 C5.50504918,22.3786181 5.38118761,22.404969 5.19563813,22.4375131 C5.01701032,22.4685999 4.85902611,22.5021154 4.72144262,22.5313807 C4.584102,22.5604032 4.46716211,22.5920971 4.37086582,22.6262198 L4.35726533,22.6291342 Z M39.3443934,20.3277377 C39.3443934,31.19234 30.5368646,39.9998689 19.6722623,39.9998689 C8.80765999,39.9998689 0.000131147541,31.19234 0.000131147541,20.3277377 C0.000131147541,9.4631354 8.80765999,0.655606557 19.6722623,0.655606557 C30.5368646,0.655606557 39.3443934,9.4631354 39.3443934,20.3277377 L39.3443934,20.3277377 Z" id="logo_green_sml"></path>
                    </g>
                </g>
            </g>
        </g>
    </g>
</svg>